<?xml version="1.0" standalone="no"?>
<!DOCTYPE svg PUBLIC "-//W3C//DTD SVG 20010904//EN"
 "http://www.w3.org/TR/2001/REC-SVG-20010904/DTD/svg10.dtd">
<svg version="1.0" xmlns="http://www.w3.org/2000/svg"
 width="800.000000pt" height="800.000000pt" viewBox="0 0 800.000000 800.000000"
 preserveAspectRatio="xMidYMid meet">
<metadata>
Created by potrace 1.14, written by Peter Selinger 2001-2017
</metadata>
<g transform="translate(0.000000,800.000000) scale(0.100000,-0.100000)"
fill="#000000" stroke="none">
<path d="M0 7370 c0 -413 3 -630 10 -630 13 0 13 -37 0 -45 -6 -4 -10 -137
-10 -365 l0 -359 53 -6 c28 -4 84 -8 122 -9 39 -2 83 -8 99 -15 21 -8 32 -8
42 -1 9 8 19 8 34 0 12 -6 31 -14 43 -16 95 -21 139 -27 257 -34 74 -5 151
-14 170 -19 19 -6 55 -13 80 -16 97 -12 356 -47 375 -50 120 -23 287 -48 360
-54 50 -4 99 -12 110 -18 11 -6 47 -16 80 -23 136 -25 129 -23 136 -57 10 -48
4 -254 -7 -261 -19 -12 -23 -39 -9 -59 12 -17 19 -91 28 -283 2 -36 11 -103
20 -149 9 -47 19 -105 22 -130 3 -25 8 -53 10 -61 3 -8 1 -28 -4 -45 -7 -28
-8 -28 -15 -9 -7 23 -32 34 -76 34 -14 0 -36 7 -48 16 -16 11 -39 15 -71 12
-30 -2 -53 2 -60 10 -16 17 -61 15 -75 -3 -13 -18 -56 -9 -56 11 0 8 5 14 11
14 14 0 43 29 45 46 2 11 -17 14 -89 12 -51 -1 -84 -3 -74 -5 9 -3 15 -9 12
-13 -3 -5 5 -12 19 -16 29 -7 41 -30 21 -38 -8 -3 -31 2 -52 11 -28 11 -61 14
-124 11 -77 -4 -88 -2 -99 15 -9 16 -19 18 -50 13 -27 -4 -54 0 -90 14 -67 26
-159 27 -191 1 -37 -30 -12 -51 60 -51 32 0 80 -6 107 -14 81 -23 122 -28 145
-16 16 9 24 8 37 -3 25 -22 114 -36 237 -38 71 -2 118 -7 132 -16 12 -7 38
-13 58 -13 20 0 48 -6 63 -14 15 -8 72 -16 127 -19 137 -8 151 -14 159 -74 4
-26 12 -65 18 -86 15 -51 1 -66 -38 -41 -16 10 -32 23 -36 28 -4 6 -31 10 -62
10 -48 1 -58 -3 -85 -30 -56 -58 -65 -124 -30 -234 11 -36 27 -96 35 -134 15
-71 70 -194 103 -231 31 -33 41 -61 48 -127 7 -71 35 -130 93 -200 36 -42 40
-54 45 -115 9 -110 10 -112 93 -195 l27 -28 -30 -1 c-16 -1 -63 -3 -104 -5
-40 -2 -79 0 -85 5 -6 5 -33 16 -61 24 -27 8 -63 22 -80 31 -23 13 -45 15 -97
10 -55 -5 -73 -3 -95 11 -20 14 -60 20 -167 27 -78 4 -166 15 -196 24 -30 9
-99 20 -152 25 -54 5 -110 14 -125 20 -40 16 -245 50 -333 56 -41 3 -81 10
-89 17 -8 6 -46 11 -85 12 -43 0 -87 8 -111 18 -23 10 -77 19 -127 22 -48 2
-112 9 -140 15 -29 5 -84 12 -122 15 -38 2 -75 9 -83 15 -11 10 -13 -11 -13
-115 l0 -127 33 2 c74 5 98 -1 125 -31 19 -21 36 -30 57 -30 17 0 36 -5 41
-10 8 -8 15 -6 24 5 18 22 91 19 143 -6 l44 -21 39 25 c22 13 49 26 59 28 45
9 8 24 -72 30 -91 6 -198 36 -192 54 8 20 195 6 379 -30 119 -23 198 -36 245
-39 175 -13 472 -59 512 -80 18 -9 42 -16 54 -16 13 0 37 -5 55 -12 26 -9 38
-9 57 1 26 14 97 12 212 -7 72 -12 217 -30 294 -37 37 -3 133 -24 194 -41 9
-3 17 -15 17 -28 0 -16 10 -27 34 -39 29 -13 35 -22 41 -59 12 -82 16 -96 31
-102 8 -3 14 -17 14 -31 0 -14 4 -25 9 -25 4 0 11 -23 14 -51 4 -28 13 -64 21
-81 9 -17 13 -34 10 -39 -8 -14 6 -49 21 -49 14 0 25 -30 25 -73 0 -19 -7 -30
-23 -36 -12 -5 -38 -22 -57 -37 -57 -47 -256 -251 -296 -305 -21 -27 -42 -49
-46 -49 -4 0 -8 -6 -8 -13 0 -7 -16 -30 -35 -51 -19 -21 -35 -41 -35 -44 0
-10 -68 -107 -86 -123 -11 -9 -55 -28 -99 -43 -44 -15 -99 -36 -121 -47 -23
-11 -75 -29 -115 -40 -41 -11 -88 -28 -105 -39 -17 -10 -47 -21 -65 -24 -19
-4 -65 -22 -104 -41 -38 -18 -88 -39 -110 -45 -22 -7 -66 -25 -99 -41 -32 -16
-64 -29 -72 -29 -7 0 -46 -15 -86 -34 -40 -19 -120 -53 -178 -76 -58 -23 -129
-53 -159 -66 -30 -14 -75 -32 -100 -41 -52 -17 -123 -48 -226 -99 -38 -19 -76
-34 -83 -34 -6 0 -29 -9 -49 -20 -21 -11 -43 -20 -50 -20 -6 0 -24 -6 -40 -14
-15 -8 -43 -20 -61 -27 l-32 -11 0 -509 0 -509 1298 0 1297 0 -3 92 c-4 115
13 110 30 -10 l11 -82 2684 0 c2676 0 2683 0 2683 20 0 11 -4 20 -10 20 -5 0
-20 16 -32 35 -13 19 -27 35 -32 35 -5 0 -24 15 -42 33 -108 106 -107 105
-179 122 -38 9 -94 25 -123 36 -29 10 -60 19 -68 19 -28 0 -153 58 -230 107
-28 18 -56 33 -62 33 -6 0 -17 6 -24 13 -7 7 -38 29 -68 49 -30 20 -68 48 -84
62 -16 14 -34 26 -40 26 -6 0 -32 17 -57 38 -26 20 -65 51 -88 67 -24 17 -65
47 -91 67 -27 21 -52 38 -56 38 -4 0 -24 16 -45 35 -22 19 -44 35 -49 35 -5 0
-32 16 -59 35 -26 19 -53 35 -59 35 -5 0 -30 16 -53 36 -24 20 -53 40 -64 45
-27 12 -54 30 -77 51 -10 10 -25 18 -34 18 -9 0 -39 16 -65 35 -27 19 -53 35
-59 35 -5 0 -31 16 -57 36 -27 21 -62 43 -80 50 -17 8 -35 19 -39 25 -3 6 -23
19 -43 28 -37 17 -146 85 -190 118 -42 32 -61 53 -61 67 0 8 -6 21 -13 28 -16
17 -57 87 -57 98 0 5 -16 36 -35 69 -19 32 -35 64 -35 70 0 10 -44 72 -90 128
-6 7 -10 16 -10 21 0 5 -11 19 -25 32 -14 13 -25 28 -25 33 0 4 -17 25 -38 45
-21 20 -43 44 -48 53 -5 9 -19 20 -31 23 -19 6 -23 3 -23 -13 0 -11 -7 -46
-16 -78 -41 -145 -51 -205 -73 -409 -5 -44 -16 -102 -25 -129 -10 -27 -21 -78
-26 -114 -22 -157 -40 -268 -50 -301 -5 -19 -13 -73 -16 -120 -7 -97 -27 -164
-61 -201 -12 -14 -23 -30 -23 -37 0 -6 -11 -14 -24 -18 -16 -4 -27 -16 -33
-37 -7 -28 -14 -33 -48 -38 -22 -3 -50 -10 -62 -17 -12 -7 -38 -12 -57 -12
-25 0 -36 -4 -36 -15 0 -8 -4 -15 -10 -15 -5 0 -28 -16 -49 -36 -32 -28 -44
-33 -58 -25 -24 12 -39 3 -52 -31 -7 -20 -15 -25 -30 -21 -26 7 -26 12 -4 30
17 13 16 14 -5 9 -25 -5 -25 -6 -6 69 4 16 3 17 -5 5 -10 -14 -16 -6 -11 15 2
6 4 42 6 80 2 39 7 85 10 103 6 29 0 53 -33 142 -9 23 -3 62 13 84 12 18 14
18 14 3 0 -11 9 -18 28 -19 42 -3 86 2 93 10 4 4 9 49 12 100 4 69 2 105 -9
135 -8 23 -16 65 -17 92 -1 28 -7 55 -13 60 -7 6 -15 20 -18 32 -5 16 -2 23
14 28 11 3 20 15 20 25 0 11 14 24 36 35 50 24 124 75 124 86 0 5 17 7 38 4
22 -3 47 0 62 8 22 11 25 19 24 60 -2 41 1 48 20 53 21 5 66 60 66 81 0 7 15
22 33 34 17 13 38 31 45 41 8 11 23 27 33 37 14 13 18 27 15 47 -8 40 42 114
76 114 11 0 18 7 18 18 0 10 11 33 25 52 14 19 25 42 25 51 0 10 12 27 26 38
31 24 84 96 84 113 0 7 15 29 32 48 31 33 35 35 90 32 46 -2 58 1 58 13 0 19
76 21 95 2 7 -7 52 -22 100 -32 68 -14 92 -16 106 -7 27 17 49 15 105 -12 80
-38 127 -47 208 -40 58 5 84 3 116 -10 22 -9 56 -16 75 -16 22 0 43 -8 61 -25
15 -14 39 -25 54 -25 23 0 27 4 23 23 -3 14 2 29 11 36 13 11 26 8 78 -17 35
-17 84 -35 110 -41 26 -6 51 -12 56 -13 6 -2 10 1 10 6 0 13 24 26 51 26 13 0
45 -13 70 -29 25 -16 78 -39 116 -51 39 -13 74 -26 79 -31 6 -5 18 -9 27 -9 9
0 22 -7 29 -15 13 -16 60 -21 60 -6 0 5 -15 16 -33 24 -40 19 -72 53 -59 61 6
3 29 -1 53 -10 53 -18 202 -53 279 -65 106 -15 177 -33 231 -59 24 -11 31 -9
65 14 21 14 50 26 64 26 31 0 70 -26 70 -45 0 -18 35 -27 86 -23 31 2 40 7 42
24 2 12 -4 28 -12 37 -37 37 -3 65 36 30 17 -15 18 -14 18 31 0 44 -1 46 -23
41 -17 -5 -33 1 -55 20 -27 23 -31 33 -34 83 -3 53 -5 58 -35 72 -18 8 -33 20
-33 25 0 6 -16 19 -35 29 -44 24 -48 56 -7 56 15 0 65 -7 112 -15 47 -8 91
-15 98 -15 8 0 12 19 12 64 l0 64 -47 10 c-27 6 -90 13 -142 17 -52 3 -102 10
-112 15 -10 6 -32 10 -50 10 -18 0 -69 7 -113 15 -45 8 -126 19 -181 25 -140
14 -222 25 -355 50 -63 11 -144 20 -180 19 -36 -1 -105 6 -155 16 -49 9 -112
20 -140 25 -27 5 -57 11 -65 14 -8 3 -62 10 -120 16 -96 8 -310 40 -370 54
-14 3 -81 10 -150 16 -89 8 -138 17 -169 32 -43 21 -44 21 -58 2 -8 -10 -19
-38 -26 -61 -6 -24 -15 -43 -19 -43 -4 0 -8 -16 -8 -35 0 -19 -5 -35 -11 -35
-5 0 -17 -15 -25 -33 -8 -17 -22 -43 -29 -57 -8 -14 -15 -32 -15 -41 0 -9 -7
-22 -15 -29 -10 -8 -15 -9 -15 -2 0 6 -9 16 -19 22 -16 8 -26 5 -50 -16 l-30
-25 -16 30 c-8 17 -15 39 -15 51 0 11 -7 20 -15 20 -8 0 -15 -5 -15 -12 0 -8
-3 -8 -9 -2 -6 5 -7 62 -2 140 6 107 11 137 28 167 20 33 21 39 8 64 -17 32
-19 69 -6 77 14 9 7 35 -14 50 -18 13 -18 16 -4 33 21 25 14 47 -20 59 -20 8
-30 20 -35 45 -3 18 -16 43 -28 56 -16 17 -18 23 -7 23 8 1 1 8 -14 16 -17 9
-26 21 -23 29 3 8 -4 21 -15 29 -15 10 -22 31 -28 82 -5 38 -9 59 -10 47 -1
-31 -21 -29 -21 2 0 16 -6 25 -15 25 -8 0 -15 5 -15 10 0 6 6 10 13 10 21 0
41 42 53 108 9 54 9 64 -5 72 -21 11 -18 13 69 43 120 40 142 50 191 84 26 18
51 33 56 33 22 0 173 165 173 189 0 6 4 11 9 11 5 0 11 12 14 28 3 15 14 36
25 48 11 11 24 36 31 55 6 19 26 82 45 140 19 58 36 130 37 160 2 65 13 89 39
89 24 0 26 -28 5 -56 -18 -24 -18 -68 -1 -169 10 -53 14 -160 15 -319 l0 -238
25 -37 c34 -48 37 -139 6 -178 -31 -40 -26 -59 18 -67 20 -3 45 -6 54 -6 20 0
58 59 63 100 2 16 8 37 13 47 5 10 12 44 16 75 6 60 -6 98 -31 98 -7 0 -13 7
-13 15 0 9 -9 15 -23 15 -14 0 -38 16 -61 41 -31 34 -37 47 -31 68 18 76 26
141 21 181 -4 31 -2 52 8 65 8 12 16 32 18 45 2 21 8 25 38 25 35 0 35 0 38
-47 3 -43 6 -48 27 -48 19 0 25 8 35 50 7 28 15 50 20 50 9 0 60 76 60 90 0
15 -33 12 -56 -5 -21 -16 -54 -20 -54 -6 0 5 5 22 11 38 14 34 36 158 49 268
5 44 13 92 18 106 6 13 16 84 23 157 6 73 16 132 20 132 4 0 9 10 11 23 3 19
8 22 48 20 120 -5 465 -39 520 -52 25 -6 86 -15 135 -21 50 -5 101 -12 115
-16 14 -3 61 -10 105 -15 76 -9 113 -28 100 -50 -3 -4 -1 -10 4 -14 14 -8 64
74 67 110 4 65 29 200 37 206 5 3 11 25 14 48 3 23 10 44 14 47 5 3 9 18 9 33
0 16 7 45 15 64 8 20 15 47 15 60 0 29 34 64 45 47 11 -17 -3 -122 -26 -196
-11 -35 -22 -80 -24 -101 -2 -21 -11 -89 -20 -152 -8 -63 -13 -122 -10 -132 8
-23 42 -34 60 -19 10 8 15 8 21 -1 4 -7 2 -15 -4 -17 -18 -6 -14 -33 8 -70 17
-27 25 -33 44 -28 22 5 112 -18 129 -34 5 -4 4 -17 -2 -29 -10 -18 -19 -20
-65 -18 -30 2 -61 9 -69 16 -26 21 -62 10 -62 -19 0 -22 4 -25 33 -22 17 1 32
-2 32 -8 0 -6 50 -10 130 -10 134 0 150 6 107 38 -20 16 -23 42 -3 42 7 0 19
-7 26 -15 17 -21 25 -12 50 64 25 76 21 118 -10 99 -22 -14 -35 -6 -26 18 4
11 13 14 30 10 14 -3 28 -2 31 4 3 5 25 10 48 10 54 1 77 18 70 52 -4 23 -1
27 26 33 18 4 39 18 48 33 9 15 25 35 35 45 17 17 18 39 16 295 -1 152 -3 267
-5 254 -3 -12 -18 -32 -34 -45 -24 -17 -29 -27 -25 -48 3 -18 -3 -37 -20 -60
-13 -18 -24 -40 -24 -49 0 -8 -7 -26 -16 -38 -8 -12 -14 -30 -13 -40 5 -30
-11 -62 -32 -62 -25 0 -25 31 1 89 11 24 20 50 20 58 0 13 28 88 52 140 6 12
7 34 4 50 -11 43 -10 53 9 118 10 33 19 69 20 80 1 11 7 33 14 48 6 16 11 31
11 34 0 3 9 18 20 33 20 28 20 43 20 514 l-1 486 -33 0 c-18 0 -45 9 -59 20
-14 11 -35 20 -46 20 -30 0 -26 25 8 49 28 20 29 20 52 2 13 -10 36 -21 52
-25 l27 -6 0 315 c0 313 0 316 -20 305 -14 -7 -20 -21 -20 -44 0 -21 -8 -40
-21 -52 -12 -10 -31 -37 -43 -59 l-21 -40 -3 38 c-2 21 1 44 7 51 5 6 12 38
15 71 6 65 30 169 46 197 14 26 12 48 -4 48 -10 0 -21 -22 -31 -57 -9 -32 -22
-76 -28 -97 -6 -21 -19 -48 -28 -60 -13 -15 -14 -25 -7 -42 8 -18 6 -30 -11
-57 -12 -19 -28 -38 -36 -41 -22 -8 -105 4 -137 20 -38 20 -89 19 -82 -1 8
-19 -13 -45 -36 -45 -13 0 -20 11 -25 38 -3 20 -10 43 -14 50 -5 8 -43 18 -87
24 -43 5 -83 13 -87 18 -4 4 -3 19 4 33 9 21 9 30 0 41 -7 8 -12 23 -11 33 4
39 0 73 -10 73 -5 0 -10 -6 -10 -14 0 -12 -20 -26 -37 -26 -3 0 -2 11 1 25 5
20 3 25 -13 25 -29 0 -113 30 -132 46 -23 21 -64 17 -80 -7 l-14 -21 -26 21
c-26 20 -33 20 -1140 21 l-1114 0 22 -22 c18 -18 35 -22 84 -23 49 -1 65 -5
85 -24 l24 -23 22 27 c18 23 26 26 52 20 17 -4 74 -6 127 -5 79 1 99 -1 113
-15 9 -10 15 -24 12 -31 -8 -21 3 -17 27 12 20 23 25 24 52 14 16 -6 45 -8 65
-5 20 3 49 1 65 -6 65 -25 83 -27 109 -14 24 13 27 12 52 -21 19 -24 30 -32
38 -24 12 12 56 14 56 2 0 -14 45 -31 100 -38 28 -4 53 -11 56 -15 3 -5 20 -9
37 -9 18 0 41 -6 52 -14 26 -18 78 -28 141 -29 50 0 52 -2 69 -39 l17 -38 75
2 c46 1 77 -3 82 -10 9 -15 54 -31 104 -37 42 -5 74 -15 136 -42 20 -9 48 -13
67 -10 27 5 39 1 54 -15 18 -20 21 -20 44 -4 36 23 49 20 69 -15 12 -23 23
-30 37 -26 10 3 28 -2 40 -10 13 -10 32 -13 51 -9 34 7 59 -1 59 -19 0 -18 23
-25 84 -25 49 0 57 -3 99 -44 26 -24 47 -47 47 -52 0 -24 -37 -84 -53 -84 -16
0 -66 -43 -68 -59 -7 -54 -16 -62 -40 -31 -10 14 -23 30 -28 36 -5 6 -7 22 -4
36 3 16 -4 39 -19 62 -22 34 -25 36 -80 36 -32 0 -58 4 -58 9 0 5 -19 9 -42 9
-31 1 -46 -4 -56 -19 -17 -24 -53 -24 -74 0 -9 11 -32 23 -51 26 -22 4 -43 18
-57 37 -22 29 -22 30 -2 24 18 -6 21 -3 19 21 -3 37 -28 40 -48 5 -10 -17 -31
-33 -57 -41 -54 -18 -75 -10 -68 29 2 17 0 28 -4 25 -5 -3 -12 4 -15 16 -6 17
-13 20 -46 17 -21 -2 -39 -1 -39 3 0 4 -13 9 -30 11 -19 3 -30 0 -30 -8 0 -17
-30 -26 -46 -13 -8 6 -14 18 -14 25 0 8 -6 14 -14 14 -7 0 -19 7 -26 15 -7 9
-22 12 -40 9 -22 -5 -31 -1 -39 15 -16 29 -59 28 -63 -1 -2 -18 -10 -23 -33
-25 -27 -2 -28 -1 -6 5 14 4 26 13 28 19 5 15 -36 43 -54 36 -10 -4 -11 -8 -4
-12 14 -9 -9 -61 -26 -61 -23 0 -54 40 -48 60 4 13 -1 22 -15 30 -11 6 -20 17
-20 24 0 17 -25 29 -67 34 -7 1 -13 9 -13 17 0 11 -7 14 -25 9 -22 -5 -25 -3
-25 18 0 35 -33 62 -65 54 -19 -5 -25 -3 -25 11 0 13 -3 14 -11 6 -9 -9 -9
-20 1 -42 7 -17 16 -31 21 -31 5 0 9 -27 9 -60 0 -47 -3 -60 -15 -60 -8 0 -15
-6 -15 -12 -1 -13 -36 24 -56 58 -7 12 -20 18 -39 16 -16 -1 -32 3 -36 10 -10
15 -33 20 -94 19 -46 0 -53 2 -68 29 -10 16 -19 33 -20 37 -3 12 -39 8 -121
-12 -21 -6 -27 -5 -22 4 4 6 12 9 17 6 5 -4 9 -2 9 4 0 5 -5 13 -11 16 -5 4
-14 18 -19 31 -13 32 -50 33 -50 1 0 -30 -10 -40 -27 -26 -10 9 -13 8 -13 -5
0 -19 -17 -20 -53 -3 -32 14 -34 23 -7 32 11 4 18 11 15 16 -11 16 -35 10 -57
-16 -12 -14 -28 -25 -35 -25 -17 0 -33 -40 -24 -58 4 -7 5 -28 3 -48 -4 -31
-6 -33 -16 -17 -14 20 -13 56 1 92 15 37 5 68 -24 76 -31 7 -37 3 -28 -24 4
-13 12 -18 21 -14 12 4 15 -1 12 -23 -2 -20 -9 -30 -23 -32 -27 -3 -70 20 -70
38 -1 21 -25 62 -47 80 -10 8 -24 26 -31 40 -17 34 -73 39 -105 10 -24 -23
-42 -19 -42 8 0 10 -9 23 -20 30 -11 7 -20 18 -20 26 0 12 -30 14 -160 15
-155 2 -160 1 -160 -19 0 -27 -45 -27 -62 0 -19 31 -60 26 -80 -10 -19 -33
-38 -32 -53 3 l-10 22 -2022 3 -2023 2 0 -630z m3832 568 c-7 -7 -12 -8 -12
-2 0 14 12 26 19 19 2 -3 -1 -11 -7 -17z m2398 -8 c0 -16 -4 -30 -10 -30 -5 0
-10 -16 -10 -36 0 -19 -7 -42 -15 -50 -13 -14 -15 -13 -15 10 0 14 5 26 10 26
6 0 10 25 10 55 0 42 3 55 15 55 10 0 15 -10 15 -30z m869 -41 c-10 -6 -10
-13 -1 -33 9 -20 7 -32 -7 -62 -17 -35 -19 -36 -26 -15 -9 28 3 111 16 111 5
0 9 13 9 28 0 41 14 50 18 12 2 -19 -2 -36 -9 -41z m-6899 14 c0 -7 -4 -13
-10 -13 -5 0 -10 12 -10 28 0 21 2 24 10 12 5 -8 10 -21 10 -27z m4044 -17
c-6 -16 -24 -23 -24 -8 0 10 22 33 27 28 2 -2 1 -11 -3 -20z m-4164 -52 c0 -2
-12 -4 -26 -4 -14 0 -23 4 -20 9 6 8 46 4 46 -5z m4077 10 c-3 -3 -12 -4 -19
-1 -8 3 -5 6 6 6 11 1 17 -2 13 -5z m-99 -27 c2 -10 -3 -17 -12 -17 -10 0 -16
9 -16 21 0 24 23 21 28 -4z m397 -70 c-5 -25 -11 -34 -21 -30 -20 7 -17 43 3
59 23 16 26 13 18 -29z m1245 23 c0 -5 -4 -10 -10 -10 -5 0 -10 5 -10 10 0 6
5 10 10 10 6 0 10 -4 10 -10z m-5630 -28 c0 -15 -2 -15 -10 -2 -13 20 -13 33
0 25 6 -3 10 -14 10 -23z m4090 -41 c0 -14 -18 -23 -30 -16 -6 4 -8 11 -5 16
8 12 35 12 35 0z m-3988 -152 c4 -23 0 -33 -15 -41 -16 -8 -23 -7 -34 8 -19
26 -16 39 10 52 32 16 34 15 39 -19z m7740 16 c0 -5 -5 -11 -11 -13 -6 -2 -11
4 -11 13 0 9 5 15 11 13 6 -2 11 -8 11 -13z m-1786 -30 c8 -21 -9 -88 -24 -93
-7 -2 -12 6 -12 22 0 16 -6 26 -15 26 -14 0 -35 29 -35 49 0 17 80 13 86 -4z
m1696 -232 c-1 -21 -8 -43 -17 -49 -10 -8 -17 -32 -19 -72 -4 -66 -10 -82 -32
-82 -8 0 -14 -4 -14 -10 0 -5 -10 -10 -22 -10 -24 0 -98 60 -98 79 0 6 -9 15
-20 21 -15 8 -24 6 -40 -10 -11 -11 -20 -29 -20 -39 0 -19 -25 -35 -40 -26 -4
2 -5 16 -2 30 2 15 -3 41 -13 59 -21 38 -15 66 14 66 14 0 18 5 14 19 -8 33
27 43 65 19 18 -11 32 -23 32 -28 0 -4 14 -24 30 -45 17 -21 30 -50 30 -64 l0
-26 19 30 c10 17 35 47 55 67 20 20 36 45 36 55 0 21 29 67 38 59 3 -3 5 -23
4 -43z m-1591 -21 c7 -18 5 -22 -11 -22 -23 0 -34 15 -26 36 8 21 27 13 37
-14z m509 -24 c0 -5 -9 -8 -21 -8 -15 0 -19 4 -15 16 3 9 6 21 6 27 0 12 29
-23 30 -35z m-120 -22 c0 -8 -4 -18 -10 -21 -5 -3 -10 3 -10 14 0 12 5 21 10
21 6 0 10 -6 10 -14z m200 6 c0 -14 -11 -21 -26 -15 -8 3 -11 9 -8 14 7 11 34
12 34 1z m-633 -8 c-3 -3 -12 -4 -19 -1 -8 3 -5 6 6 6 11 1 17 -2 13 -5z m-34
-86 c0 -10 -1 -25 -2 -34 -1 -9 -8 -14 -18 -12 -10 2 -17 10 -15 16 1 8 -6 10
-23 6 -21 -5 -25 -3 -25 17 0 12 10 33 22 46 l21 23 21 -22 c11 -12 20 -30 19
-40z m594 15 c-5 -27 -18 -54 -28 -61 -23 -16 -24 -41 -3 -86 21 -42 12 -86
-16 -86 -10 0 -23 6 -27 13 -4 8 -20 22 -35 32 -31 19 -39 71 -14 81 20 8 66
80 66 103 0 36 12 51 40 51 l28 0 -11 -47z m-137 -8 c0 -51 -10 -59 -55 -46
-16 5 -24 10 -17 10 6 1 12 6 12 11 0 14 42 70 52 70 4 0 8 -20 8 -45z m-655
15 c3 -4 2 -22 -1 -39 -5 -24 -11 -30 -28 -27 -23 3 -31 25 -22 61 4 17 11 22
26 18 11 -3 22 -9 25 -13z m545 -112 c0 -4 -13 -8 -30 -8 -30 0 -37 11 -24 45
6 14 9 13 30 -6 13 -12 24 -26 24 -31z m-370 12 c0 -5 -7 -10 -15 -10 -8 0
-15 5 -15 10 0 6 7 10 15 10 8 0 15 -4 15 -10z m850 -4 c0 -3 -4 -8 -10 -11
-5 -3 -10 -1 -10 4 0 6 5 11 10 11 6 0 10 -2 10 -4z m-157 -42 c-3 -8 -9 -14
-13 -14 -14 0 -22 20 -16 37 5 12 9 13 21 3 7 -6 11 -18 8 -26z m-613 11 c0
-8 -6 -15 -14 -15 -7 0 -19 7 -26 15 -11 13 -8 15 14 15 16 0 26 -5 26 -15z
m-6193 -37 c-3 -7 -5 -2 -5 12 0 14 2 19 5 13 2 -7 2 -19 0 -25z m7451 -9 c-4
-51 -34 -69 -69 -40 -26 20 -18 44 22 66 42 23 50 19 47 -26z m-1316 -9 c4
-28 -14 -72 -25 -60 -3 3 -8 24 -12 48 -6 38 -5 42 13 42 14 0 21 -8 24 -30z
m68 -23 c0 -39 -19 -80 -56 -122 -23 -26 -25 -27 -20 -8 6 18 2 24 -18 29 -34
8 -33 29 2 43 16 7 39 30 51 52 27 48 41 50 41 6z m-338 -14 c2 -10 2 -29 -1
-42 -6 -21 -8 -22 -20 -7 -8 9 -11 26 -7 41 7 29 22 33 28 8z m988 -4 c0 -5 5
-7 10 -4 6 3 10 2 10 -3 0 -5 -15 -17 -32 -25 -29 -14 -34 -14 -41 -1 -5 9 -7
16 -5 17 1 1 12 7 23 14 25 15 35 16 35 2z m-167 -65 c30 -43 26 -64 -15 -64
-17 0 -27 -4 -23 -10 3 -5 1 -10 -5 -10 -8 0 -8 -6 0 -20 13 -25 -7 -153 -23
-147 -34 11 -57 236 -27 272 23 28 64 18 93 -21z m657 22 c6 -8 10 -25 8 -37
-3 -21 -3 -21 -27 -2 -16 13 -22 26 -18 36 8 21 21 22 37 3z m-846 -51 c8 -21
-13 -85 -28 -85 -8 0 -18 -22 -26 -52 -14 -62 -15 -90 -5 -139 l7 -35 -35 4
c-31 3 -35 1 -39 -23 -8 -38 3 -116 14 -109 6 4 7 -2 2 -17 -4 -13 -7 -41 -6
-61 1 -48 -11 -55 -46 -26 -28 23 -28 24 -25 128 2 70 7 108 15 115 7 5 14 18
14 27 1 10 5 29 8 43 7 27 -8 35 -18 10 -11 -30 -45 -17 -65 26 -18 37 -18 41
-3 45 9 3 25 10 35 15 25 13 38 2 35 -28 -2 -18 2 -27 14 -28 21 -4 32 25 24
63 -4 15 -1 47 7 71 10 38 18 46 44 53 18 5 35 13 38 18 7 12 32 2 39 -15z
m-634 -50 c0 -19 -4 -35 -10 -35 -10 0 -12 6 -12 40 0 28 1 30 12 30 6 0 10
-16 10 -35z m680 -157 l0 -33 -15 29 c-18 35 -18 36 0 36 10 0 15 -10 15 -32z
m1178 5 c3 -17 -2 -23 -16 -23 -18 0 -32 18 -32 42 0 21 45 3 48 -19z m182 -2
c0 -17 4 -32 10 -36 11 -7 2 -36 -16 -51 -7 -6 -27 -9 -44 -6 -24 3 -30 8 -24
21 8 20 26 72 30 89 2 6 13 12 24 12 15 0 20 -7 20 -29z m-1410 15 c0 -3 -4
-8 -10 -11 -5 -3 -10 -1 -10 4 0 6 5 11 10 11 6 0 10 -2 10 -4z m1300 -46 c0
-5 -10 -10 -22 -10 -19 0 -20 2 -8 10 19 13 30 13 30 0z m-1340 -134 c0 -3 -4
-8 -10 -11 -5 -3 -10 -1 -10 4 0 6 5 11 10 11 6 0 10 -2 10 -4z m450 -101 c10
-12 9 -16 -4 -21 -9 -3 -14 -10 -11 -14 6 -10 -73 -30 -120 -30 -20 0 -44 -4
-53 -9 -23 -12 -62 4 -62 26 0 37 17 47 92 53 122 12 145 11 158 -5z m-675
-50 c0 -62 -25 -70 -39 -14 -11 45 -2 72 21 67 14 -3 18 -14 18 -53z m768 6
c19 -7 27 -21 35 -54 5 -24 8 -55 6 -68 -1 -13 -3 -30 -3 -36 -2 -21 -28 -15
-34 8 -5 17 -10 19 -29 13 -13 -5 -39 -8 -58 -9 -34 0 -35 1 -32 33 3 31 -10
43 -23 21 -10 -16 -49 -28 -56 -17 -16 25 5 57 54 81 74 37 102 42 140 28z
m-2123 -36 c9 -8 29 -15 43 -15 17 0 27 -5 27 -15 0 -11 11 -15 43 -15 23 0
59 -9 79 -19 19 -11 39 -17 42 -14 3 4 16 -3 29 -15 12 -11 34 -25 50 -31 15
-6 32 -22 37 -35 8 -23 13 -24 63 -19 55 6 127 -10 127 -28 0 -5 6 -9 14 -9
23 0 116 -79 116 -98 0 -10 5 -23 10 -28 14 -14 18 -38 31 -164 6 -58 17 -117
25 -132 8 -15 14 -42 14 -61 0 -20 8 -44 20 -57 13 -15 20 -38 20 -64 1 -23 7
-68 15 -101 8 -33 15 -83 15 -110 0 -28 6 -59 14 -70 7 -11 16 -59 20 -107 3
-49 15 -110 26 -138 25 -63 25 -60 -4 -60 -31 0 -86 20 -86 31 0 5 -7 9 -15 9
-18 0 -125 59 -125 69 0 3 -16 15 -36 26 -19 10 -63 49 -97 86 -93 100 -134
123 -252 144 -111 20 -142 20 -162 4 -9 -8 -45 -10 -116 -5 -118 8 -117 8
-179 3 -36 -3 -54 -11 -78 -36 -17 -17 -38 -31 -45 -31 -25 0 -45 12 -45 27 0
8 -7 27 -15 44 -14 26 -14 30 0 35 21 8 19 32 -2 30 -13 -1 -18 8 -20 39 -2
22 -5 48 -7 58 -3 11 2 17 13 17 14 0 16 7 13 38 -2 28 -1 33 7 22 9 -12 11
-10 11 10 1 46 11 52 63 38 26 -7 47 -18 47 -25 0 -7 12 -16 26 -19 32 -8 120
18 116 34 -3 15 15 16 20 1 5 -16 49 7 45 23 -1 6 8 17 21 23 19 10 20 14 8
18 -9 4 -16 13 -16 20 0 8 -9 22 -20 32 -21 19 -27 60 -10 70 18 11 11 90 -10
113 -12 12 -16 23 -10 27 6 4 7 11 4 17 -4 6 -9 7 -13 0 -6 -9 -65 -42 -76
-42 -3 0 -5 7 -5 15 0 8 -7 15 -15 15 -8 0 -15 5 -15 10 0 6 15 10 34 10 40 0
49 10 41 43 -5 18 -12 23 -26 20 -10 -3 -19 -12 -19 -19 0 -8 -9 -14 -19 -14
-11 0 -21 -4 -23 -8 -5 -15 -78 -1 -78 14 0 17 12 18 28 2 9 -9 12 -9 12 1 0
26 -29 42 -72 39 -42 -3 -43 -2 -43 27 0 25 4 31 27 33 21 3 27 9 30 30 2 21
9 28 31 30 15 2 27 -1 27 -7 0 -6 -4 -11 -9 -11 -11 0 -19 -30 -14 -48 3 -6 9
-9 15 -6 6 4 14 0 19 -7 7 -11 9 -10 9 5 0 13 5 16 16 12 13 -5 16 0 12 29 -3
29 -1 35 14 35 22 0 23 13 3 30 -8 7 -15 19 -15 26 0 8 -6 14 -12 14 -7 0 -4
6 6 12 19 11 19 11 0 25 -18 14 -18 15 6 8 14 -4 31 -10 38 -12 6 -3 12 2 12
11 0 9 7 16 15 16 9 0 18 7 21 15 3 8 14 17 24 20 10 3 20 19 23 35 5 23 11
28 28 25 12 -2 29 -11 39 -20z m1436 -61 c5 -43 3 -58 -7 -65 -11 -7 -15 4
-20 49 -4 31 -5 60 -2 65 12 19 22 2 29 -49z m-99 10 c1 -5 -4 -18 -13 -29
-12 -17 -16 -18 -24 -5 -10 17 6 53 23 47 6 -2 12 -7 14 -13z m513 -24 c0 -12
-49 -45 -56 -37 -3 3 -3 15 1 26 6 21 55 31 55 11z m-6415 -149 c4 -15 1 -23
-10 -27 -23 -9 -38 10 -51 66 -11 51 -5 74 25 97 14 10 17 4 23 -52 3 -35 9
-73 13 -84z m7545 9 c21 -41 29 -173 11 -184 -5 -3 -12 -22 -15 -41 -6 -30
-12 -37 -37 -42 -20 -4 -34 -14 -40 -30 -5 -14 -15 -23 -22 -21 -19 7 -21 96
-3 135 9 18 23 48 31 66 8 17 19 56 25 85 16 85 21 89 50 32z m-3170 -230 c0
-5 -2 -10 -4 -10 -3 0 -8 5 -11 10 -3 6 -1 10 4 10 6 0 11 -4 11 -10z m79 -29
c13 -13 19 -34 20 -81 1 -34 4 -67 8 -74 3 -7 1 -6 -7 1 -8 7 -16 39 -18 72
-4 49 -7 58 -20 54 -10 -4 -13 -2 -8 5 3 6 2 13 -4 17 -13 8 -13 25 0 25 6 0
18 -8 29 -19z m-39 -11 c0 -5 -4 -10 -10 -10 -5 0 -10 5 -10 10 0 6 5 10 10
10 6 0 10 -4 10 -10z m-320 -334 c0 -13 -7 -26 -15 -30 -11 -4 -15 2 -15 24 0
20 5 30 15 30 9 0 15 -9 15 -24z m3411 -143 c7 -27 15 -54 17 -60 6 -21 -42
-15 -56 7 -10 16 -10 30 -2 60 6 22 15 40 19 40 5 0 15 -21 22 -47z m-386
-293 c3 -5 -1 -10 -10 -10 -9 0 -13 5 -10 10 3 6 8 10 10 10 2 0 7 -4 10 -10z
m-2113 -79 c-10 -6 -2 -14 30 -30 24 -11 53 -21 64 -21 43 0 111 -31 122 -55
6 -14 22 -27 35 -30 13 -4 34 -25 50 -51 25 -41 27 -52 28 -181 2 -104 -2
-150 -14 -188 -9 -27 -22 -70 -28 -95 -7 -25 -18 -52 -25 -60 -6 -8 -24 -38
-38 -67 -25 -47 -77 -102 -170 -179 -44 -37 -176 -84 -234 -84 -23 0 -44 -4
-47 -10 -10 -16 -207 -12 -248 5 -20 8 -51 15 -69 15 -25 0 -29 3 -18 10 8 5
24 7 35 5 142 -26 162 -27 196 -12 19 8 46 18 62 21 28 7 37 30 15 39 -7 3 -2
6 12 6 30 1 74 23 69 34 -2 4 15 17 39 27 40 18 56 40 29 40 -8 0 -19 12 -26
27 -16 34 -3 43 67 43 45 0 52 3 52 20 0 20 -6 23 -80 35 -53 8 -64 19 -62 59
1 19 -2 38 -8 41 -17 10 25 51 77 76 38 18 51 20 93 12 52 -10 86 1 118 39 12
15 7 47 -7 49 -67 6 -88 13 -143 51 -35 23 -76 49 -92 58 -17 8 -34 29 -40 46
-13 37 -45 78 -68 87 -11 4 -15 12 -12 22 12 30 147 -8 159 -45 3 -11 17 -23
31 -26 26 -7 26 -6 28 -47 1 -16 10 -33 19 -39 13 -7 15 -14 7 -27 -11 -21 -4
-31 20 -31 10 0 23 -7 30 -15 14 -17 50 -17 62 0 4 6 8 26 8 46 0 21 9 47 20
62 32 40 5 109 -36 93 -21 -8 -134 46 -175 85 -17 16 -38 29 -46 29 -7 0 -24
12 -36 26 -21 24 -23 25 -59 10 -39 -17 -68 -13 -68 9 0 8 10 15 23 17 14 2
22 10 22 23 0 17 9 21 50 26 81 9 192 10 177 0z m-139 -442 c23 -28 22 -36 -7
-43 -46 -11 -117 44 -84 66 20 13 71 0 91 -23z m-1008 -44 c44 -57 135 -239
135 -269 0 -13 27 -67 52 -106 9 -14 22 -51 29 -82 8 -32 17 -58 21 -58 5 0 8
-8 8 -17 0 -23 29 -53 52 -53 20 0 23 21 8 51 -19 35 35 24 74 -16 20 -19 40
-35 45 -35 15 0 0 -39 -18 -45 -14 -4 -15 -18 -13 -97 3 -64 9 -98 19 -110 19
-21 43 -102 43 -146 0 -59 20 -100 52 -107 20 -5 28 -13 28 -29 0 -12 4 -26
10 -32 5 -5 11 -21 13 -34 2 -14 15 -30 28 -37 30 -16 37 -37 28 -87 -4 -23
-5 -45 -2 -49 7 -12 -18 -67 -31 -67 -6 0 -31 9 -55 21 -25 11 -50 18 -57 15
-6 -2 -20 1 -30 9 -28 19 -122 45 -139 38 -11 -4 -15 2 -15 21 0 26 -5 29 -50
27 -15 -1 -34 7 -48 21 -27 29 -34 72 -11 73 8 0 23 8 33 17 9 10 40 20 68 24
80 11 112 60 68 104 -28 28 -90 26 -182 -5 -40 -14 -80 -25 -88 -25 -8 0 -25
-15 -37 -34 -19 -30 -41 -38 -72 -27 -2 0 4 12 13 26 23 35 18 95 -10 122 -19
18 -24 34 -27 105 -7 122 -24 212 -48 252 -17 30 -19 42 -12 79 6 23 6 49 2
57 -31 65 -32 68 -16 90 12 17 14 38 10 90 -4 51 -2 75 11 100 15 30 14 35 -1
69 -9 20 -23 40 -30 44 -7 4 -13 13 -13 18 0 6 4 8 9 4 6 -3 15 4 21 15 6 11
17 20 25 20 11 0 15 13 17 43 0 23 2 47 3 52 2 6 3 13 4 18 3 21 31 0 76 -58z
m275 -228 l0 -34 64 1 c54 1 68 -3 88 -21 13 -13 30 -23 36 -23 6 0 18 -13 27
-30 9 -16 22 -30 30 -30 18 0 47 -29 40 -41 -4 -5 -2 -9 4 -9 5 0 13 9 16 20
8 24 41 26 90 6 22 -10 35 -22 34 -33 0 -11 -3 -13 -6 -5 -2 6 -9 10 -13 7 -5
-3 -7 -11 -4 -18 6 -17 -62 -17 -91 -1 -11 7 -35 11 -53 9 -24 -1 -37 4 -50
22 -12 16 -23 22 -34 18 -21 -8 -13 -31 13 -38 11 -3 24 -18 30 -34 6 -17 21
-34 37 -40 24 -9 25 -11 8 -18 -39 -17 -126 25 -193 92 -34 34 -69 78 -78 99
-17 41 -21 134 -5 134 6 0 10 -15 10 -33z m500 -269 c0 -15 -5 -18 -22 -13
-32 10 -50 29 -20 22 12 -3 22 -1 22 4 0 5 -5 9 -11 9 -5 0 -7 5 -4 10 10 16
35 -8 35 -32z m100 32 c0 -5 -4 -10 -10 -10 -5 0 -10 5 -10 10 0 6 5 10 10 10
6 0 10 -4 10 -10z m-4841 -699 c25 -16 4 -41 -34 -41 -31 0 -35 3 -35 25 0 21
5 25 28 25 15 0 33 -4 41 -9z m5488 -525 c23 -8 81 -23 130 -32 48 -8 106 -24
127 -34 36 -17 41 -17 72 -2 31 14 40 14 131 -7 54 -13 107 -28 117 -33 15 -8
22 -6 32 6 11 15 20 16 70 7 32 -6 79 -11 105 -11 26 0 50 -4 53 -9 3 -4 33
-14 66 -20 71 -14 73 -26 10 -59 -25 -12 -47 -28 -49 -35 -2 -6 -10 -20 -19
-29 -8 -10 -12 -28 -10 -43 4 -18 -1 -30 -16 -40 -35 -25 -75 -18 -113 20 -39
39 -44 40 -143 23 -56 -10 -75 -10 -90 0 -11 7 -28 12 -38 12 -9 0 -34 9 -55
20 -20 11 -56 20 -80 20 -23 1 -64 1 -92 1 -71 0 -272 38 -322 61 -63 29 -72
73 -23 115 17 13 30 31 30 40 0 8 5 23 11 35 12 22 23 21 96 -6z m-887 -66 c7
-14 8 -26 0 -39 -10 -19 -4 -51 9 -51 4 0 12 5 18 11 13 13 33 4 33 -17 0 -8
7 -14 16 -14 11 0 14 -8 12 -32 -2 -24 -10 -36 -31 -46 -15 -7 -34 -29 -42
-48 -9 -23 -21 -34 -35 -34 -22 0 -80 -80 -80 -112 0 -10 -7 -18 -15 -18 -8 0
-30 -14 -50 -31 -28 -25 -38 -29 -49 -19 -10 7 -21 8 -33 2 -10 -4 -31 -6 -48
-3 -26 5 -30 11 -33 44 -2 20 -7 37 -12 37 -5 0 -18 15 -29 34 -30 48 -69 62
-114 41 -32 -15 -38 -15 -65 -1 -16 8 -32 24 -35 36 -4 14 -13 20 -32 20 l-28
0 26 20 c14 11 30 20 35 20 5 0 34 11 63 24 30 13 63 27 74 31 18 7 17 9 -11
21 -68 29 -51 72 38 97 97 27 159 29 201 7 34 -18 38 -18 84 -3 26 9 57 22 68
30 28 19 53 16 65 -7z m2296 -126 c17 -7 37 -21 44 -29 8 -9 27 -23 43 -32 17
-8 41 -28 54 -44 14 -16 31 -29 39 -29 8 0 27 -11 42 -25 15 -14 40 -31 57
-39 16 -8 46 -31 64 -50 45 -46 33 -64 -31 -48 -24 6 -88 13 -143 15 -78 4
-119 11 -185 35 -134 47 -173 54 -223 41 -57 -16 -117 -2 -134 30 -9 19 -9 27
3 38 8 8 14 24 14 36 1 42 59 109 105 119 39 9 220 -4 251 -18z m-466 -139 c0
-15 -43 -12 -48 3 -3 10 4 13 22 10 15 -2 26 -7 26 -13z m-2170 -204 c0 -5 -7
-22 -15 -37 l-15 -29 0 31 c0 17 3 34 7 37 9 10 23 9 23 -2z m-81 -107 c12
-15 21 -30 21 -35 0 -11 -68 -32 -85 -25 -21 8 -19 63 3 75 27 16 39 13 61
-15z m176 -913 c-6 -5 -25 10 -25 20 0 5 6 4 14 -3 8 -7 12 -15 11 -17z m5
-168 c0 -16 -6 -23 -20 -23 -24 0 -39 28 -21 39 23 15 41 8 41 -16z"/>
<path d="M4668 5986 c-10 -7 -15 -16 -11 -19 11 -12 21 -7 26 13 3 11 4 20 4
20 -1 0 -10 -7 -19 -14z"/>
<path d="M5160 4730 c0 -5 5 -10 11 -10 5 0 7 5 4 10 -3 6 -8 10 -11 10 -2 0
-4 -4 -4 -10z"/>
<path d="M5123 3973 c9 -2 25 -2 35 0 9 3 1 5 -18 5 -19 0 -27 -2 -17 -5z"/>
<path d="M6297 2653 c-12 -11 -8 -50 7 -62 18 -15 26 4 19 42 -5 27 -14 33
-26 20z"/>
<path d="M6485 2609 c-11 -16 -2 -19 39 -12 26 4 33 9 24 14 -18 12 -56 11
-63 -2z"/>
<path d="M6847 2480 c-44 -8 -49 -12 -41 -34 7 -17 27 -20 59 -7 11 5 25 4 33
-1 15 -13 15 1 -1 27 -10 18 -18 20 -50 15z"/>
<path d="M6807 7473 c8 -3 11 -14 7 -29 -7 -29 20 -35 30 -7 7 18 -17 44 -38
42 -6 0 -5 -3 1 -6z"/>
<path d="M7992 5860 c0 -14 2 -19 5 -12 2 6 2 18 0 25 -3 6 -5 1 -5 -13z"/>
<path d="M555 5670 c-6 -8 -17 -37 -26 -65 -9 -27 -20 -58 -24 -67 -5 -13 -2
-18 9 -18 19 0 38 43 30 65 -4 8 1 27 11 41 9 14 15 33 13 42 -3 15 -5 15 -13
2z"/>
<path d="M479 5464 c-29 -35 -15 -104 22 -104 20 0 26 22 19 74 -6 44 -20 55
-41 30z"/>
<path d="M374 5426 c-12 -6 -28 -17 -35 -23 -8 -6 -27 -13 -44 -16 -18 -2 -7
-5 27 -6 31 0 62 -3 70 -6 23 -9 51 19 44 43 -8 24 -29 27 -62 8z"/>
<path d="M0 5407 c0 -15 42 -28 89 -26 26 1 26 1 -5 14 -56 25 -84 29 -84 12z"/>
<path d="M1190 5310 c-12 -8 -9 -10 13 -10 16 0 26 4 22 10 -8 12 -16 12 -35
0z"/>
<path d="M6142 5180 c0 -14 2 -19 5 -12 2 6 2 18 0 25 -3 6 -5 1 -5 -13z"/>
<path d="M323 5184 c15 -16 82 -33 91 -24 5 5 7 13 3 16 -9 10 -103 18 -94 8z"/>
<path d="M55 5140 c-3 -5 6 -15 20 -22 22 -10 28 -9 35 2 11 17 12 16 -22 24
-15 3 -30 2 -33 -4z"/>
<path d="M505 5140 c-3 -5 -1 -10 4 -10 6 0 11 5 11 10 0 6 -2 10 -4 10 -3 0
-8 -4 -11 -10z"/>
<path d="M156 5127 c3 -10 9 -15 12 -12 3 3 0 11 -7 18 -10 9 -11 8 -5 -6z"/>
<path d="M7977 5112 c-10 -10 -17 -22 -17 -27 0 -5 -12 -26 -26 -47 -34 -49
-27 -68 26 -68 l40 0 0 80 c0 44 -2 80 -3 80 -2 0 -11 -8 -20 -18z"/>
<path d="M253 5113 c9 -2 23 -2 30 0 6 3 -1 5 -18 5 -16 0 -22 -2 -12 -5z"/>
<path d="M0 5030 c0 -35 23 -41 40 -11 10 20 8 23 -22 34 -15 5 -18 1 -18 -23z"/>
<path d="M6960 5041 c0 -11 25 -21 56 -21 21 0 24 -5 24 -36 l0 -36 -52 7
c-38 4 -49 3 -38 -4 8 -6 22 -11 31 -11 9 0 19 -8 22 -19 3 -13 16 -20 42 -23
31 -3 40 0 53 20 9 14 15 40 14 59 -2 19 2 41 9 49 6 8 10 14 8 15 -46 6 -169
7 -169 0z"/>
<path d="M70 4963 c-8 -2 -20 -15 -27 -30 -10 -21 -10 -29 3 -47 12 -17 26
-21 77 -23 34 -1 90 -5 124 -8 53 -6 65 -4 83 13 l20 19 -31 1 c-18 0 -45 10
-60 21 -16 12 -40 21 -55 21 -15 0 -35 6 -43 14 -17 14 -67 25 -91 19z"/>
<path d="M7167 4908 c-2 -18 -2 -37 0 -41 8 -13 32 26 33 51 0 35 -27 26 -33
-10z"/>
<path d="M0 4914 c0 -8 5 -12 10 -9 6 3 10 10 10 16 0 5 -4 9 -10 9 -5 0 -10
-7 -10 -16z"/>
<path d="M7867 4906 c-7 -19 11 -32 24 -19 6 6 5 14 -4 22 -12 9 -16 8 -20 -3z"/>
<path d="M375 4886 c-15 -11 -14 -14 5 -39 20 -25 26 -27 100 -27 93 0 110 5
109 34 0 11 -3 15 -6 8 -2 -6 -9 -10 -14 -6 -5 3 -9 -2 -9 -10 0 -23 -17 -20
-23 4 -4 14 -14 20 -34 20 -16 0 -34 5 -39 10 -16 16 -71 20 -89 6z"/>
<path d="M1015 4884 c69 -21 112 -27 132 -19 33 12 -44 35 -116 34 l-66 0 50
-15z"/>
<path d="M7962 4882 c-21 -7 -22 -8 -7 -29 23 -33 45 -29 45 7 0 31 -1 32 -38
22z"/>
<path d="M630 4860 c-12 -12 -19 -27 -17 -33 6 -20 50 -37 82 -31 17 3 59 -4
97 -16 79 -24 118 -19 118 15 0 34 -24 47 -113 62 -45 8 -96 16 -114 19 -23 5
-36 1 -53 -16z"/>
<path d="M1180 4860 c0 -16 7 -20 33 -20 19 0 37 3 40 7 13 12 -15 33 -44 33
-22 0 -29 -5 -29 -20z"/>
<path d="M7142 4855 c0 -16 2 -22 5 -12 2 9 2 23 0 30 -3 6 -5 -1 -5 -18z"/>
<path d="M1364 4824 c3 -9 6 -18 6 -20 0 -2 11 -4 25 -4 14 0 25 5 25 11 0 5
-5 7 -10 4 -6 -3 -13 1 -16 9 -3 9 -13 16 -21 16 -10 0 -13 -6 -9 -16z"/>
<path d="M7097 4791 l-28 -18 23 -7 c45 -12 58 -7 58 19 0 29 -14 31 -53 6z"/>
<path d="M0 4585 c0 -119 4 -205 9 -205 33 0 73 98 53 130 -9 14 -8 21 3 30
19 16 11 120 -10 136 -8 6 -15 26 -15 43 0 35 -15 71 -30 71 -6 0 -10 -80 -10
-205z m30 61 c0 -3 -4 -8 -10 -11 -5 -3 -10 -1 -10 4 0 6 5 11 10 11 6 0 10
-2 10 -4z"/>
<path d="M6150 4383 c-8 -3 -27 -17 -42 -31 l-28 -26 0 -160 c0 -138 8 -204
22 -186 21 27 38 63 38 79 0 11 5 23 10 26 6 3 10 21 10 40 0 19 4 36 9 39 13
8 23 70 24 151 2 72 -5 82 -43 68z"/>
<path d="M0 4217 c0 -63 3 -116 6 -120 16 -15 34 8 34 44 0 29 4 39 15 39 9 0
27 11 41 25 14 14 29 25 33 25 15 0 43 39 36 49 -3 6 -27 11 -52 11 -30 0 -53
7 -70 20 -14 11 -30 20 -34 20 -5 0 -9 -51 -9 -113z"/>
<path d="M6190 4079 c-20 -36 -6 -46 72 -55 40 -4 87 -8 103 -9 27 -1 59 -6
193 -36 60 -13 301 -31 323 -24 52 17 -6 50 -72 42 -37 -5 -60 -1 -96 15 -44
20 -152 35 -293 42 -40 2 -130 20 -170 34 -36 13 -50 11 -60 -9z"/>
<path d="M0 4005 c0 -26 4 -35 16 -35 12 0 15 6 10 23 -3 12 -6 28 -6 35 0 6
-4 12 -10 12 -5 0 -10 -16 -10 -35z"/>
<path d="M6934 3952 c25 -29 110 -52 189 -52 35 0 89 -5 118 -12 30 -6 74 -11
99 -10 24 1 54 -5 65 -12 29 -19 112 -34 225 -40 52 -3 130 -10 172 -15 43 -6
91 -8 106 -5 19 4 32 1 41 -10 19 -23 51 -20 51 4 0 17 -7 20 -42 20 -23 0
-49 6 -57 14 -9 7 -65 21 -126 30 -60 9 -135 21 -165 27 -30 5 -90 14 -134 19
-43 5 -85 15 -92 21 -8 7 -27 9 -46 4 -68 -14 -152 -11 -168 7 -12 13 -41 18
-135 24 l-120 7 19 -21z"/>
<path d="M0 3894 c0 -56 2 -61 35 -87 52 -41 69 -34 73 32 l3 53 -31 -4 c-26
-4 -33 -1 -40 17 -4 11 -15 27 -24 34 -14 12 -16 7 -16 -45z"/>
<path d="M6077 3732 c-10 -11 -17 -35 -17 -57 0 -36 -21 -75 -66 -119 -20 -20
-11 -46 15 -46 10 0 42 16 71 36 61 42 103 51 167 35 56 -15 155 -28 308 -41
61 -5 129 -13 153 -16 43 -6 43 -6 40 22 -3 27 0 29 32 32 29 3 38 10 51 37
19 41 29 37 -161 60 -69 8 -156 19 -195 25 -38 5 -113 14 -165 20 -52 5 -119
14 -149 20 -69 13 -65 13 -84 -8z"/>
<path d="M5772 3597 c-15 -16 -22 -36 -22 -63 0 -21 -7 -48 -15 -58 -8 -11
-15 -34 -15 -51 0 -17 -4 -35 -10 -41 -5 -5 -17 -57 -26 -114 -9 -58 -29 -136
-45 -175 -36 -92 -43 -121 -30 -130 6 -3 24 5 40 18 25 21 38 24 88 22 32 -2
85 -12 117 -24 33 -11 75 -21 95 -21 20 0 81 -5 136 -12 92 -10 103 -9 128 7
15 9 27 22 27 29 0 6 24 37 53 69 50 53 56 57 98 57 50 0 69 -13 69 -47 0 -13
6 -23 13 -23 6 0 25 -11 42 -24 25 -20 27 -26 17 -39 -11 -13 -6 -17 44 -27
74 -16 100 -27 150 -67 23 -18 48 -33 57 -33 9 0 40 -6 70 -14 55 -15 126 -19
261 -17 72 1 77 2 65 18 -8 9 -33 25 -56 35 -24 10 -43 25 -43 33 0 8 -4 15
-10 15 -14 0 -13 -23 2 -38 9 -9 7 -12 -10 -12 -15 0 -24 8 -28 28 -10 42 -24
54 -55 47 -27 -6 -28 -5 -23 22 5 25 0 31 -38 55 -24 15 -54 38 -68 51 -14 13
-47 34 -73 47 -38 19 -52 22 -66 13 -20 -12 -31 -7 -47 22 -6 11 -21 21 -33
23 -16 3 -21 8 -17 19 9 23 -12 43 -44 43 -20 0 -35 10 -54 35 -15 19 -31 35
-36 35 -5 0 -26 10 -46 22 -21 12 -45 23 -55 23 -20 2 -49 28 -49 45 0 6 -5 8
-11 4 -16 -10 -59 17 -59 37 0 24 -72 86 -110 94 -35 8 -59 -13 -60 -51 0 -32
-24 -48 -50 -34 -11 6 -42 10 -67 8 l-47 -3 -19 -94 c-15 -80 -23 -100 -50
-128 -18 -18 -38 -33 -46 -33 -8 0 -29 -5 -48 -12 -18 -6 -36 -9 -40 -4 -4 4
-10 28 -13 54 -4 36 -1 51 13 65 11 11 17 34 18 70 0 28 2 62 5 75 5 29 33 85
48 94 11 7 17 78 6 78 -4 0 -16 -10 -28 -23z m1008 -517 c0 -11 -4 -20 -10
-20 -5 0 -10 9 -10 20 0 11 5 20 10 20 6 0 10 -9 10 -20z"/>
<path d="M7125 3574 c-40 -40 -41 -58 -3 -62 33 -4 66 25 74 66 6 28 4 32 -14
32 -12 0 -37 -16 -57 -36z"/>
<path d="M7434 3555 c-4 -9 -2 -21 5 -28 8 -8 11 -8 11 1 0 7 7 12 16 12 20 0
13 24 -9 28 -10 2 -20 -4 -23 -13z"/>
<path d="M7660 3520 c0 -5 4 -10 9 -10 6 0 13 5 16 10 3 6 -1 10 -9 10 -9 0
-16 -4 -16 -10z"/>
<path d="M6605 3431 c9 -18 37 -42 72 -60 32 -17 81 -49 108 -71 28 -22 60
-44 73 -50 12 -5 32 -19 45 -30 34 -32 60 -34 136 -6 l71 26 2 -23 c3 -41 -2
-61 -17 -70 -23 -13 -18 -35 13 -53 15 -9 39 -25 54 -35 15 -11 32 -19 37 -19
10 0 120 -70 187 -120 23 -16 44 -30 49 -30 4 0 19 -12 34 -26 33 -32 159
-114 177 -114 7 0 20 -7 29 -16 9 -9 35 -19 58 -21 37 -4 47 -1 75 25 54 50
38 79 -50 93 -29 5 -73 19 -98 32 -42 22 -45 26 -45 65 0 36 -4 42 -32 56 -30
14 -32 14 -48 -11 -10 -14 -18 -33 -20 -42 -2 -18 -35 -29 -35 -11 0 15 -40
72 -63 88 -11 9 -17 24 -15 40 2 21 9 28 31 30 25 3 55 37 43 49 -2 3 -27 -1
-55 -8 -60 -15 -101 -2 -101 31 0 12 -9 30 -20 42 -21 23 -27 63 -10 73 12 7
14 55 2 55 -4 0 -12 -10 -17 -22 -6 -12 -19 -22 -30 -23 -11 -1 -30 -5 -42 -9
-24 -8 -78 15 -85 36 -3 8 -9 5 -17 -10 -6 -12 -18 -22 -27 -22 -8 0 -26 -7
-39 -16 -27 -18 -75 -12 -71 8 9 51 16 57 77 64 50 6 59 10 59 26 0 13 -12 24
-38 35 -22 8 -46 28 -56 44 -20 35 -43 38 -42 7 1 -19 -5 -24 -31 -26 -21 -2
-34 -10 -38 -23 -4 -10 -16 -24 -27 -30 -27 -15 -68 6 -68 35 0 12 -4 27 -8
34 -9 13 -103 32 -165 32 l-38 0 16 -29z"/>
<path d="M7528 3253 c6 -2 18 -2 25 0 6 3 1 5 -13 5 -14 0 -19 -2 -12 -5z"/>
<path d="M7772 3243 c-9 -3 -4 -10 13 -19 34 -17 56 -18 53 -1 -5 24 -34 33
-66 20z"/>
<path d="M7700 3215 c-10 -13 -9 -15 9 -15 12 0 21 6 21 15 0 8 -4 15 -9 15
-5 0 -14 -7 -21 -15z"/>
<path d="M7850 3208 c0 -6 7 -19 15 -28 13 -14 11 -19 -11 -45 -13 -17 -31
-45 -39 -63 -13 -30 -12 -35 6 -67 12 -19 25 -35 30 -35 5 0 9 -11 9 -25 0
-17 5 -25 18 -25 22 1 56 26 49 37 -13 20 -16 123 -5 147 9 21 8 29 -3 43 -9
10 -20 30 -27 46 -11 27 -42 38 -42 15z"/>
<path d="M7960 3136 c0 -15 24 -28 34 -19 13 14 5 33 -14 33 -11 0 -20 -6 -20
-14z"/>
<path d="M342 3128 c3 -7 17 -15 33 -16 25 -3 27 -2 16 12 -16 19 -55 22 -49
4z"/>
<path d="M7670 3132 c0 -7 5 -21 11 -31 18 -28 3 -70 -27 -77 -20 -5 -24 -12
-22 -33 4 -35 27 -33 48 4 9 17 26 35 38 41 36 18 36 21 -7 65 -23 24 -41 38
-41 31z"/>
<path d="M74 3119 c-3 -5 1 -9 9 -9 7 0 28 -17 46 -37 30 -35 37 -38 77 -34
33 2 44 7 44 20 0 27 -21 41 -61 41 -20 0 -42 6 -48 14 -13 15 -58 18 -67 5z"/>
<path d="M2012 3003 c3 -16 69 -43 106 -43 27 0 62 17 62 30 0 11 -41 20 -113
24 -46 2 -57 0 -55 -11z"/>
<path d="M2 2898 c2 -14 9 -22 18 -19 37 9 45 5 55 -26 11 -40 18 -41 57 -8
26 22 37 25 73 19 24 -3 51 -1 61 4 16 9 12 11 -21 16 -22 4 -53 13 -68 21
-35 18 -51 19 -77 3 -16 -10 -24 -10 -40 0 -11 6 -29 12 -41 12 -16 0 -20 -5
-17 -22z"/>
<path d="M7801 2904 c0 -11 3 -14 6 -6 3 7 2 16 -1 19 -3 4 -6 -2 -5 -13z"/>
<path d="M330 2860 c-12 -8 -12 -10 3 -16 9 -3 25 -3 34 0 15 6 15 8 3 16 -8
6 -17 10 -20 10 -3 0 -12 -4 -20 -10z"/>
<path d="M456 2846 c-23 -11 -25 -14 -11 -19 9 -4 44 -7 78 -6 54 0 58 2 35
11 -16 5 -28 14 -28 19 0 13 -39 10 -74 -5z"/>
<path d="M628 2822 c-10 -2 -18 -8 -18 -13 0 -12 87 -12 94 0 6 9 -48 19 -76
13z"/>
<path d="M720 2809 c0 -5 11 -9 25 -9 14 0 25 2 25 4 0 2 -11 6 -25 8 -14 3
-25 1 -25 -3z"/>
<path d="M68 2779 c-10 -5 -18 -15 -18 -21 0 -7 4 -7 13 1 8 6 17 8 20 4 4 -3
7 1 7 10 0 20 0 20 -22 6z"/>
<path d="M930 2772 c29 -4 32 -6 15 -12 -15 -6 -8 -9 25 -9 l45 0 -34 14 c-18
8 -45 14 -60 13 -20 -1 -18 -2 9 -6z"/>
<path d="M2188 2583 c12 -2 30 -2 40 0 9 3 -1 5 -23 4 -22 0 -30 -2 -17 -4z"/>
<path d="M2306 2561 c5 -5 40 -14 78 -20 38 -5 73 -15 77 -22 5 -8 10 -5 18 9
13 25 14 35 2 27 -5 -3 -12 -1 -16 5 -3 5 -43 10 -88 10 -49 0 -77 -4 -71 -9z"/>
<path d="M4594 1396 c-4 -10 -2 -22 4 -28 8 -8 13 -7 18 6 4 10 2 22 -4 28 -8
8 -13 7 -18 -6z"/>
</g>
</svg>
